# xmcd CD database file
#
# Track frame offsets:
#	150
#	17157
#	33742
#
# Disc length: 694 seconds
#
# Revision: 1
# Processed by: cddbd v1.5.1PL0 Copyright (c) Steve Scherf et al.
# Submitted via: CDex 1.51
#
DISCID=1f02b403
DTITLE=SEX MACHINEGUNS - みかんのうた（Live）
DYEAR=2001
DGENRE=Heavy Metal
TTITLE0=illusion city
TTITLE1=illusion city〜Anchangと“勝負じゃこりゃー”Version
TTITLE2=みかんのうた
EXTD=YEAR: 2001年5月23日
EXTT0=
EXTT1=
EXTT2=
PLAYORDER=
